# xmcd
#
# Track frame offsets:
#	150
#	15755
#	36660
#	55397
#	84505
#	100137
#	118200
#	134037
#	148185
#	164817
#	181130
#
# Disc length: 2652 seconds
#
# Revision: 9
# Processed by: cddbd v1.5.2PL0 Copyright (c) Steve Scherf et al.
# Submitted via: audiograbber 1.83.01
#
DISCID=a00a5a0b
DTITLE=Various Artist - Genuine Houserockin' Music
DYEAR=1999
DGENRE=Blues
TTITLE0=Johnny Winter - Sound The Bell
TTITLE1=Koko Taylor - Come To Mama
TTITLE2=Lonnie Mack - Satisfy Suzie
TTITLE3=Albert Collins with Robert Cray and Johnny Copeland - Blackjack
TTITLE4=Son Seals - Goin' Home
TTITLE5=Lonnie Brooks - Don't Take Advantage Of Me
TTITLE6=Roy Buchanan - Short Fuse
TTITLE7=Fenton Robinson - Laundry Man
TTITLE8=Jimmy Johnson - You Don't Know What Love Is
TTITLE9=James Cotton - Ain't Doin' Too Bad
TTITLE10=Hound Dog Taylor And The Houserockers - Don't Blame Me
EXTD=
EXTT0=
EXTT1=
EXTT2=
EXTT3=
EXTT4=
EXTT5=
EXTT6=
EXTT7=
EXTT8=
EXTT9=
EXTT10=
PLAYORDER=
